<svg version="1.1" id="Camada_1" xmlns="http://www.w3.org/2000/svg" x="0" y="0" viewBox="0 0 285 39" style="enable-background:#fff" xml:space="preserve"><style>.st0{fill:#fff}</style><text transform="translate(6.74 23.47)" class="st0" style="font-size:18px;font-family:'PlayfairDisplay-Bold'">Verifique se o som está ligado</text><path class="st0" d="M280.09 20.3c-.07.51-.12 1.02-.22 1.52-.48 2.58-1.66 4.8-3.52 6.65a.9.9 0 0 1-1.27.01c-.36-.34-.37-.91-.01-1.29.94-.97 1.71-2.05 2.27-3.28 1.77-3.95.98-8.66-1.99-11.81-.09-.1-.19-.19-.28-.29-.35-.39-.35-.94.01-1.29.37-.35.91-.35 1.29.03.75.74 1.39 1.56 1.93 2.46 1.01 1.69 1.6 3.52 1.74 5.49.01.07.03.14.05.2v1.6zM269.2 19.52v11.64c0 .56-.24.9-.7 1.02-.34.08-.62-.05-.88-.26-1.63-1.31-3.26-2.61-4.89-3.92-1.19-.95-2.38-1.9-3.57-2.86a.808.808 0 0 0-.58-.2c-1.25.01-2.5.01-3.75 0-1.22 0-1.96-.75-1.96-1.97v-6.94c0-1.22.74-1.97 1.97-1.97 1.27 0 2.53 0 3.8-.01.15 0 .33-.06.45-.16 2.83-2.25 5.65-4.51 8.47-6.77.29-.23.58-.41.97-.29.39.11.65.43.67.83.01.1 0 .19 0 .29v11.57z"/><path class="st0" d="M276.47 19.64c-.04 2.32-.88 4.45-2.62 6.22-.33.33-.74.41-1.11.21-.36-.19-.56-.58-.45-.98.05-.19.18-.39.32-.54 1.1-1.15 1.78-2.5 1.98-4.08.28-2.28-.35-4.27-1.92-5.96-.15-.16-.3-.36-.37-.57-.13-.39.07-.8.42-1 .36-.21.8-.15 1.12.17a8.78 8.78 0 0 1 1.78 2.53c.57 1.22.84 2.51.85 4z"/></svg>